<svg width="256" height="256" viewBox="0 0 256 256" fill="none" xmlns="http://www.w3.org/2000/svg">
  <path d="M48 10C48 4.47715 52.4772 0 58 0H160L208 48V212C208 217.523 203.523 222 198 222H58C52.4772 222 48 217.523 48 212V10Z" fill="#F2F2F2"/>
  <path d="M160 0L208 48H160V0Z" fill="#D9D9D9"/>
  <rect x="24" y="160" width="208" height="70" rx="12" fill="#5D6D7E"/>
  <text x="128" y="210" fill="white" font-family="sans-serif" font-size="40" font-weight="bold" text-anchor="middle">ZIP</text>
  <rect x="120" y="50" width="16" height="80" fill="#5D6D7E"/>
  <path d="M115 60H141M115 75H141M115 90H141M115 105H141" stroke="white" stroke-width="4"/>
  <circle cx="128" cy="140" r="12" fill="#5D6D7E"/>
</svg>
